<svg xmlns="http://www.w3.org/2000/svg" width="27" height="27" fill="none">
  <circle cx="13.5" cy="13.5" r="13.5" fill="#CAD6FF"/>
  <path fill="#000" d="M11.719 7.06a.5.5 0 0 0 1 0h-1Zm3.398 0a.5.5 0 0 0 1 0h-1Zm4.278 8.059-.384.32.384-.32Zm1.593 2.855.495-.076-.495.076ZM13.997 6.3a.5.5 0 1 0 0 1v-1Zm5.22 4.978-.497.05.498-.05ZM8.606 15.119l.384.32-.384-.32Zm-1.593 2.855.494.077-.494-.077ZM14.003 7.3a.5.5 0 1 0 0-1v1Zm-5.22 3.978-.498-.05.498.05Zm7.853 7.872h-.5v.259h1v-.259h-.5Zm-5.34.259h.5v-.259h-1v.259h.5ZM13.966 22v-.5c-1.212 0-2.17-.95-2.17-2.092h-1c0 1.721 1.434 3.092 3.17 3.092V22Zm2.67-2.592h-.5c0 1.141-.957 2.092-2.17 2.092v1c1.737 0 3.17-1.37 3.17-3.092h-.5ZM12.22 7.06h.5c0-.565.161-.955.373-1.195.208-.238.494-.365.826-.365v-1c-.607 0-1.171.242-1.577.704-.404.46-.622 1.1-.622 1.856h.5ZM13.918 5v.5c.331 0 .617.127.825.365.212.24.374.63.374 1.195h1c0-.756-.219-1.396-.622-1.856a2.068 2.068 0 0 0-1.577-.704V5Zm5.477 10.119-.384.32c.105.126.266.272.383.387.133.13.274.277.413.462.271.364.554.901.687 1.763l.494-.077.495-.076c-.159-1.025-.507-1.716-.876-2.209a4.898 4.898 0 0 0-.514-.579c-.168-.164-.253-.238-.315-.312l-.383.321Zm-5.398-8.32v.5H14v-1h-.003v.5Zm.003 0v.5c2.519.002 4.524 2.047 4.72 4.027l.498-.05.497-.048C19.468 8.732 17.029 6.3 14 6.299v.5Zm5.218 4.478-.498.05c.107 1.077.055 1.885.022 2.508-.016.303-.03.594-.008.842.021.25.082.53.277.763l.384-.321.383-.32c-.002-.004-.034-.042-.048-.207a5.65 5.65 0 0 1 .01-.705c.033-.621.09-1.498-.025-2.66l-.497.05ZM8.605 15.119l-.383-.32c-.062.073-.147.147-.315.311a4.907 4.907 0 0 0-.514.58c-.37.492-.717 1.183-.876 2.208l.495.076.494.077c.133-.861.416-1.4.687-1.763.139-.185.28-.332.413-.462.117-.115.278-.261.383-.386l-.384-.321Zm5.398-8.32v-.5H14v1h.003v-.5ZM14 6.8v-.5c-3.03.002-5.468 2.433-5.715 4.929l.498.049.497.05C9.476 9.345 11.481 7.3 14 7.298v-.5Zm-5.217 4.478-.498-.05c-.115 1.162-.058 2.039-.026 2.66.017.319.025.538.011.705-.014.165-.046.203-.048.206l.383.321.384.32c.194-.232.256-.512.277-.762.022-.248.008-.54-.008-.842-.033-.623-.085-1.431.022-2.509l-.497-.05Zm-.642 7.872v.5h11.718v-1H8.141v.5Zm-1.13-1.175-.494-.076c-.157 1.017.723 1.751 1.624 1.751v-1c-.44 0-.677-.328-.635-.598l-.494-.077Zm13.977 0-.494.077c.042.27-.196.598-.635.598v1c.901 0 1.78-.735 1.624-1.751l-.495.076Z"/>
  <circle cx="18.5" cy="8.5" r="2.5" fill="#2260FF"/>
</svg>
