<svg xmlns="http://www.w3.org/2000/svg" width="20" height="23" fill="none">
  <path fill="#fff" d="M17.784 3.007v-.5.5ZM19 4.182h-.5.5Zm-18 0H.5 1Zm1.216-1.175v.5-.5ZM17.784 21.98v-.5.5ZM19 20.805h.5-.5ZM5.214 19.082h.5-.5Zm-1.217-1.175v.5-.5Zm-2.529.458-.348.359.348-.36Zm5.271 3.614v.5-.5Zm-2.633-1.06-.347.36.347-.36ZM1.61 8.529a.5.5 0 0 0 0 1v-1Zm17.238 1a.5.5 0 0 0 0-1v1ZM6.078 5.441a.5.5 0 0 0 1 0h-1Zm1-4.441a.5.5 0 0 0-1 0h1Zm6.321 4.44a.5.5 0 0 0 1 0h-1Zm1-4.44a.5.5 0 1 0-1 0h1ZM6.492 12.544a.5.5 0 0 0 0 1v-1Zm.152 1a.5.5 0 1 0 0-1v1Zm-.152 2.397a.5.5 0 1 0 0 1v-1Zm.152 1a.5.5 0 0 0 0-1v1Zm3.508-4.397a.5.5 0 0 0 0 1v-1Zm.153 1a.5.5 0 1 0 0-1v1Zm-.152 2.397a.5.5 0 1 0 0 1v-1Zm.152 1a.5.5 0 0 0 0-1v1Zm3.509-4.397a.5.5 0 1 0 0 1v-1Zm.152 1a.5.5 0 1 0 0-1v1Zm-.152 2.397a.5.5 0 1 0 0 1v-1Zm.152 1a.5.5 0 0 0 0-1v1Zm3.818 5.038v-.5H6.74v1h11.044v-.5ZM1 17.252h.5V4.182h-1v13.07H1ZM2.216 3.007v.5h15.568v-1H2.216v.5ZM19 4.182h-.5v16.623h1V4.181H19Zm-1.216-1.175v.5c.412 0 .716.319.716.675h1c0-.941-.785-1.675-1.716-1.675v.5ZM1 4.182h.5c0-.356.304-.675.716-.675v-1C1.285 2.507.5 3.241.5 4.182H1Zm3.106 16.737.348-.36c-.859-.828-2.005-1.94-2.638-2.553l-.348.359-.348.359c.633.613 1.78 1.725 2.64 2.555l.346-.36Zm13.678 1.06v.5c.931 0 1.716-.733 1.716-1.674h-1c0 .356-.304.674-.716.674v.5Zm-12.57-2.897h-.5V22h1v-2.918h-.5ZM1 17.907v.5h2.997v-1H1v.5Zm4.214 1.175h.5c0-.942-.786-1.676-1.718-1.675v.5l.001.5c.413 0 .717.318.717.675h.5ZM1 17.252H.5c0 .554.221 1.085.62 1.472l.348-.36.348-.358a1.047 1.047 0 0 1-.316-.754H1Zm5.74 4.727v-.5c-.34 0-.78-.098-1.218-.273-.437-.176-.824-.41-1.068-.647l-.348.36-.347.36c.365.352.874.648 1.39.855.517.207 1.087.345 1.59.345v-.5ZM1.61 9.029v.5h17.238v-1H1.61v.5Zm4.967-3.588h.5V1h-1v4.44h.5Zm7.322 0h.5V1h-1v4.44h.5Zm-7.407 7.603v.5h.152v-1h-.152v.5Zm0 3.397v.5h.152v-1h-.152v.5Zm3.66-3.397v.5h.153v-1h-.152v.5Zm0 3.397v.5h.153v-1h-.152v.5Zm3.662-3.397v.5h.152v-1h-.152v.5Zm0 3.397v.5h.152v-1h-.152v.5Z"/>
</svg>
