<svg xmlns="http://www.w3.org/2000/svg" width="26" height="23" fill="none">
  <path stroke="#fff" stroke-linecap="round" stroke-linejoin="round" d="M5.299 7.612C2.752 8.82 1 11.34 1 14.254c0 1.662.57 3.196 1.532 4.43L1.26 21.657c-.06.195.118.381.324.338l3.457-1.226a7.914 7.914 0 0 0 3.66.888 7.87 7.87 0 0 0 4.657-1.506M25 10.467a9.186 9.186 0 0 1-1.96 5.667l1.627 3.8c.078.25-.15.488-.414.432L19.83 18.8a10.122 10.122 0 0 1-4.682 1.135c-5.44 0-9.85-4.238-9.85-9.467C5.299 5.24 9.709 1 15.149 1 20.59 1 25 5.239 25 10.467Z"/>
</svg>
