<svg xmlns="http://www.w3.org/2000/svg" width="25" height="25" fill="none">
  <path fill="#00278C" d="M2.805 12.07v-.5.5ZM1.678 8.948l.308.395-.308-.395Zm21.644 0-.308.395.308-.395Zm-1.127 3.122v.5-.5ZM13.627 1.385l.307-.394-.307.394Zm-2.254 0-.307-.394.307.394ZM12.5 17.268v.5-.5Zm3.162 3.038h.5-.5Zm-6.325 0h-.5.5ZM8.838 24a.5.5 0 0 0 1 0h-1Zm6.325 0a.5.5 0 0 0 1 0h-1Zm6.166-12.114h-.5v10.36h1v-10.36h-.5ZM19.526 24v-.5H5.834v1h13.692V24ZM4.032 22.247h.5V11.886h-1v10.36h.5ZM5.834 24v-.5c-.732 0-1.302-.574-1.302-1.253h-1c0 1.257 1.044 2.253 2.302 2.253V24Zm15.494-1.753h-.5c0 .68-.57 1.253-1.302 1.253v1c1.259 0 2.302-.996 2.302-2.253h-.5ZM13.627 1.385l-.308.395 9.695 7.563.308-.395.307-.394L13.934.991l-.307.394Zm8.568 10.685v-.5H2.805v1h19.39v-.5ZM1.678 8.948l.308.395L11.68 1.78l-.308-.395-.307-.394L1.37 8.554l.307.394Zm1.127 3.122v-.5c-1.258 0-1.748-1.503-.82-2.227l-.307-.395-.307-.394C-.357 9.902.659 12.57 2.805 12.57v-.5Zm20.517-3.122-.308.395c.929.724.439 2.227-.82 2.227v1c2.147 0 3.163-2.668 1.435-4.016l-.307.394Zm-9.695-7.563.307-.394a2.34 2.34 0 0 0-2.868 0l.307.394.308.395a1.34 1.34 0 0 1 1.638 0l.308-.395ZM12.5 17.268v.5c1.49 0 2.662 1.155 2.662 2.538h1c0-1.973-1.658-3.538-3.662-3.538v.5Zm-3.162 3.038h.5c0-1.383 1.172-2.538 2.662-2.538v-1c-2.004 0-3.662 1.566-3.662 3.538h.5Zm0 3.694h.5v-3.694h-1V24h.5Zm6.325-3.694h-.5V24h1v-3.694h-.5Z"/>
</svg>
