<svg xmlns="http://www.w3.org/2000/svg" width="360" height="800" fill="none">
  <rect width="360" height="800" fill="#2260FF" rx="30"/>
  <path fill="#fff" d="M145.069 554.662c.416 0 .786-.058 1.11-.174.324-.12.562-.238.714-.354l.642 1.278c-.184.16-.502.322-.954.486-.448.164-.984.246-1.608.246-.584 0-1.13-.102-1.638-.306a4.23 4.23 0 0 1-1.338-.864 4.04 4.04 0 0 1-.9-1.302 4.04 4.04 0 0 1-.324-1.62 4.006 4.006 0 0 1 1.218-2.934c.384-.372.83-.662 1.338-.87a4.326 4.326 0 0 1 1.644-.312c.624 0 1.16.082 1.608.246.452.164.77.326.954.486l-.642 1.278c-.152-.116-.39-.232-.714-.348a3.183 3.183 0 0 0-1.11-.18 2.97 2.97 0 0 0-1.134.204 2.424 2.424 0 0 0-1.362 1.404c-.12.316-.18.652-.18 1.008 0 .36.06.7.18 1.02.12.316.294.596.522.84.232.24.512.428.84.564.332.136.71.204 1.134.204Zm7.484 1.338v-.858c-.036.088-.128.212-.276.372-.148.16-.348.306-.6.438-.248.128-.54.192-.876.192-.472 0-.89-.112-1.254-.336a2.405 2.405 0 0 1-.858-.93 2.879 2.879 0 0 1-.306-1.338c0-.496.102-.94.306-1.332.208-.396.494-.708.858-.936a2.312 2.312 0 0 1 1.254-.342c.328 0 .612.056.852.168.244.108.44.236.588.384.152.144.25.274.294.39v-.798h1.512V556h-1.494Zm-2.676-2.46c0 .276.062.52.186.732a1.333 1.333 0 0 0 1.158.66c.252 0 .476-.058.672-.174.196-.12.35-.284.462-.492.116-.212.174-.454.174-.726 0-.272-.058-.512-.174-.72a1.262 1.262 0 0 0-.462-.498 1.26 1.26 0 0 0-.672-.18c-.24 0-.462.06-.666.18a1.32 1.32 0 0 0-.492.492 1.39 1.39 0 0 0-.186.726Zm6.933 4.956h-1.512v-7.422h1.53v.798c.048-.116.152-.248.312-.396.16-.148.368-.276.624-.384.26-.108.556-.162.888-.162.468 0 .876.114 1.224.342.348.228.616.54.804.936.192.392.288.836.288 1.332 0 .496-.1.942-.3 1.338-.2.392-.478.702-.834.93-.356.224-.77.336-1.242.336a2.032 2.032 0 0 1-1.518-.624c-.144-.16-.232-.286-.264-.378v3.354Zm2.664-4.956c0-.276-.06-.518-.18-.726a1.261 1.261 0 0 0-1.122-.672 1.321 1.321 0 0 0-1.17.678 1.453 1.453 0 0 0-.174.72c0 .272.058.514.174.726.12.208.282.372.486.492.204.116.432.174.684.174a1.26 1.26 0 0 0 1.122-.66c.12-.212.18-.456.18-.732Zm5.018 1.392c.26 0 .472-.044.636-.132.164-.088.272-.154.324-.198l.708 1.05a2.31 2.31 0 0 1-.312.186c-.152.08-.346.15-.582.21a3.009 3.009 0 0 1-.798.096c-.52 0-.986-.104-1.398-.312a2.44 2.44 0 0 1-.978-.9c-.236-.392-.354-.858-.354-1.398 0-.544.118-1.01.354-1.398.24-.388.566-.686.978-.894a3.059 3.059 0 0 1 1.398-.312 2.916 2.916 0 0 1 1.368.318c.156.08.264.146.324.198l-.726 1.056a.984.984 0 0 0-.162-.132 1.384 1.384 0 0 0-.78-.228c-.22 0-.43.058-.63.174a1.364 1.364 0 0 0-.666 1.218c0 .28.062.526.186.738.124.208.284.37.48.486.2.116.41.174.63.174Zm5.711-4.002c.336 0 .664.07.984.21.32.136.582.354.786.654.208.3.312.692.312 1.176V556h-1.53v-2.766c0-.404-.092-.704-.276-.9-.18-.196-.422-.294-.726-.294-.204 0-.4.056-.588.168a1.31 1.31 0 0 0-.456.456 1.251 1.251 0 0 0-.174.66V556h-1.53v-8.256h1.53v4.116c.04-.136.138-.276.294-.42.156-.144.354-.264.594-.36.24-.1.5-.15.78-.15Zm4.417 2.946c.012.224.072.424.18.6s.264.314.468.414c.208.1.456.15.744.15.26 0 .488-.032.684-.096.2-.064.368-.142.504-.234.14-.096.244-.188.312-.276l.63.936c-.112.14-.262.27-.45.39-.184.116-.42.208-.708.276-.284.072-.64.108-1.068.108-.54 0-1.014-.106-1.422-.318a2.294 2.294 0 0 1-.954-.918c-.228-.4-.342-.876-.342-1.428 0-.48.102-.912.306-1.296.204-.388.5-.694.888-.918.392-.224.862-.336 1.41-.336.516 0 .962.1 1.338.3.38.196.674.484.882.864.208.38.312.844.312 1.392a6.3 6.3 0 0 1-.006.198.97.97 0 0 1-.012.192h-3.696Zm2.286-.942a.981.981 0 0 0-.12-.414.96.96 0 0 0-.342-.378c-.156-.104-.364-.156-.624-.156s-.474.05-.642.15c-.164.1-.288.224-.372.372a1.018 1.018 0 0 0-.144.426h2.244Zm3.873 3.066h-1.524v-4.926h1.524v.798h-.03c.028-.096.104-.218.228-.366.128-.148.304-.28.528-.396.224-.12.494-.18.81-.18.228 0 .434.034.618.102.188.064.322.128.402.192l-.6 1.248a.857.857 0 0 0-.294-.198 1.206 1.206 0 0 0-.528-.102.95.95 0 0 0-.63.21 1.273 1.273 0 0 0-.378.504c-.084.196-.126.38-.126.552V556Zm6.242-7.92h2.184c.844 0 1.54.17 2.088.51a3.11 3.11 0 0 1 1.236 1.398c.272.596.408 1.278.408 2.046 0 .772-.136 1.456-.408 2.052a3.146 3.146 0 0 1-1.236 1.404c-.548.34-1.244.51-2.088.51h-2.184v-7.92Zm1.488 1.338v5.244h.564c.516 0 .94-.112 1.272-.336.336-.228.586-.54.75-.936.168-.396.252-.844.252-1.344a3.429 3.429 0 0 0-.24-1.35 2.035 2.035 0 0 0-.756-.936c-.336-.228-.762-.342-1.278-.342h-.564Zm7.984 6.726c-.524 0-.992-.112-1.404-.336a2.494 2.494 0 0 1-.96-.918 2.577 2.577 0 0 1-.348-1.338c0-.5.116-.946.348-1.338a2.51 2.51 0 0 1 .96-.936c.412-.232.88-.348 1.404-.348.528 0 .994.116 1.398.348.404.228.72.54.948.936.228.392.342.838.342 1.338 0 .5-.114.946-.342 1.338a2.461 2.461 0 0 1-.948.918c-.404.224-.87.336-1.398.336Zm0-1.266c.252 0 .47-.056.654-.168a1.15 1.15 0 0 0 .432-.474c.104-.204.156-.434.156-.69 0-.256-.052-.486-.156-.69a1.142 1.142 0 0 0-.432-.48 1.17 1.17 0 0 0-.654-.18 1.2 1.2 0 0 0-.66.18 1.197 1.197 0 0 0-.432.48 1.497 1.497 0 0 0-.156.69c0 .256.052.486.156.69.104.2.248.358.432.474.188.112.408.168.66.168Zm6.249.054c.26 0 .472-.044.636-.132.164-.088.272-.154.324-.198l.708 1.05a2.31 2.31 0 0 1-.312.186c-.152.08-.346.15-.582.21a3.009 3.009 0 0 1-.798.096c-.52 0-.986-.104-1.398-.312a2.44 2.44 0 0 1-.978-.9c-.236-.392-.354-.858-.354-1.398 0-.544.118-1.01.354-1.398.24-.388.566-.686.978-.894a3.059 3.059 0 0 1 1.398-.312 2.916 2.916 0 0 1 1.368.318c.156.08.264.146.324.198l-.726 1.056a.984.984 0 0 0-.162-.132 1.384 1.384 0 0 0-.78-.228c-.22 0-.43.058-.63.174a1.364 1.364 0 0 0-.666 1.218c0 .28.062.526.186.738.124.208.284.37.48.486.2.116.41.174.63.174Zm2.058-3.858h.888v-2.022h1.512v2.022h1.164v1.266H207.2v1.782c0 .236.038.42.114.552.076.128.196.192.36.192a.587.587 0 0 0 .45-.18l.54 1.092a1.09 1.09 0 0 1-.234.126 2.6 2.6 0 0 1-.498.162 2.7 2.7 0 0 1-.678.078c-.452 0-.826-.13-1.122-.39-.296-.264-.444-.672-.444-1.224v-2.19h-.888v-1.266Zm7.045 5.07c-.524 0-.992-.112-1.404-.336a2.494 2.494 0 0 1-.96-.918 2.577 2.577 0 0 1-.348-1.338c0-.5.116-.946.348-1.338a2.51 2.51 0 0 1 .96-.936c.412-.232.88-.348 1.404-.348.528 0 .994.116 1.398.348.404.228.72.54.948.936.228.392.342.838.342 1.338 0 .5-.114.946-.342 1.338a2.461 2.461 0 0 1-.948.918c-.404.224-.87.336-1.398.336Zm0-1.266c.252 0 .47-.056.654-.168a1.15 1.15 0 0 0 .432-.474c.104-.204.156-.434.156-.69 0-.256-.052-.486-.156-.69a1.142 1.142 0 0 0-.432-.48 1.17 1.17 0 0 0-.654-.18 1.2 1.2 0 0 0-.66.18 1.197 1.197 0 0 0-.432.48 1.497 1.497 0 0 0-.156.69c0 .256.052.486.156.69.104.2.248.358.432.474.188.112.408.168.66.168Zm5.133 1.122h-1.524v-4.926h1.524v.798h-.03c.028-.096.104-.218.228-.366.128-.148.304-.28.528-.396.224-.12.494-.18.81-.18.228 0 .434.034.618.102.188.064.322.128.402.192l-.6 1.248a.857.857 0 0 0-.294-.198 1.206 1.206 0 0 0-.528-.102.95.95 0 0 0-.63.21 1.273 1.273 0 0 0-.378.504c-.084.196-.126.38-.126.552V556ZM117.57 456.744c1.712 0 3.152.208 4.32.624 1.184.4 2.104.824 2.76 1.272.656.448 1.032.736 1.128.864l-.96 1.344c-.24-.224-.656-.536-1.248-.936-.592-.416-1.376-.792-2.352-1.128-.976-.336-2.168-.504-3.576-.504-2.272 0-4.056.488-5.352 1.464-1.296.976-1.944 2.32-1.944 4.032 0 1.152.336 2.16 1.008 3.024.688.848 1.6 1.616 2.736 2.304a51.646 51.646 0 0 0 3.792 1.992c1.04.496 2.104 1.04 3.192 1.632a17.225 17.225 0 0 1 3.024 2.088 9.434 9.434 0 0 1 2.28 2.76c.576 1.056.864 2.288.864 3.696 0 1.168-.24 2.256-.72 3.264-.464 1.008-1.144 1.896-2.04 2.664-.88.752-1.944 1.336-3.192 1.752-1.232.416-2.616.624-4.152.624-1.728 0-3.304-.232-4.728-.696-1.424-.464-2.576-.936-3.456-1.416-.864-.496-1.336-.776-1.416-.84l1.08-1.416c.208.16.544.4 1.008.72.48.304 1.08.624 1.8.96.72.32 1.568.592 2.544.816.976.224 2.072.336 3.288.336 2.72 0 4.784-.648 6.192-1.944 1.424-1.312 2.136-2.952 2.136-4.92 0-1.536-.456-2.84-1.368-3.912-.912-1.088-2.056-2.032-3.432-2.832a54.406 54.406 0 0 0-4.152-2.208 42.185 42.185 0 0 1-4.032-2.256c-1.2-.784-2.152-1.672-2.856-2.664-.704-1.008-1.056-2.2-1.056-3.576 0-1.328.384-2.52 1.152-3.576.768-1.056 1.824-1.888 3.168-2.496 1.344-.608 2.864-.912 4.56-.912Zm26.277 12.552h2.304l-10.896 9.384L146.607 489h-2.304l-10.44-9.408V489h-1.536v-33.024h1.536v21.936l9.984-8.616ZM165.678 489v-4.368c-.096.448-.472 1.072-1.128 1.872-.64.784-1.536 1.496-2.688 2.136-1.152.624-2.52.936-4.104.936-1.744 0-3.376-.4-4.896-1.2-1.504-.8-2.72-1.976-3.648-3.528-.928-1.552-1.392-3.448-1.392-5.688 0-2.24.464-4.136 1.392-5.688.928-1.552 2.144-2.728 3.648-3.528a10.194 10.194 0 0 1 4.896-1.224c1.584 0 2.952.312 4.104.936 1.168.608 2.08 1.304 2.736 2.088.672.784 1.032 1.432 1.08 1.944v-4.392h1.488V489h-1.488Zm-16.32-9.84c0 1.856.4 3.448 1.2 4.776.8 1.328 1.832 2.344 3.096 3.048 1.264.704 2.584 1.056 3.96 1.056 1.52 0 2.88-.36 4.08-1.08 1.2-.72 2.144-1.744 2.832-3.072.704-1.328 1.056-2.904 1.056-4.728 0-1.824-.352-3.4-1.056-4.728-.688-1.328-1.632-2.352-2.832-3.072-1.2-.736-2.56-1.104-4.08-1.104-1.376 0-2.696.36-3.96 1.08-1.264.704-2.296 1.72-3.096 3.048-.8 1.328-1.2 2.92-1.2 4.776Zm33.091-10.44c1.2 0 2.376.264 3.528.792 1.152.528 2.096 1.368 2.832 2.52.752 1.136 1.128 2.616 1.128 4.44V489h-1.584v-12.024c0-2.416-.56-4.136-1.68-5.16-1.12-1.04-2.544-1.56-4.272-1.56-1.152 0-2.264.336-3.336 1.008-1.072.672-1.96 1.584-2.664 2.736-.688 1.152-1.032 2.44-1.032 3.864V489h-1.536v-19.704h1.536v4.032c.096-.576.472-1.224 1.128-1.944.656-.72 1.504-1.344 2.544-1.872s2.176-.792 3.408-.792Zm22.107 19.32c1.536 0 2.76-.232 3.672-.696.912-.48 1.464-.8 1.656-.96l.936 1.344c-.096.08-.432.272-1.008.576-.576.304-1.336.592-2.28.864-.928.272-1.984.408-3.168.408-1.408 0-2.824-.376-4.248-1.128-1.408-.768-2.592-1.928-3.552-3.48-.944-1.552-1.416-3.496-1.416-5.832 0-2.352.472-4.296 1.416-5.832.96-1.536 2.144-2.68 3.552-3.432 1.424-.768 2.84-1.152 4.248-1.152 1.184 0 2.216.152 3.096.456.896.304 1.616.632 2.16.984.56.352.904.6 1.032.744l-.912 1.344c-.144-.144-.432-.376-.864-.696-.416-.32-.984-.616-1.704-.888s-1.592-.408-2.616-.408c-1.232 0-2.456.344-3.672 1.032-1.216.672-2.224 1.672-3.024 3-.784 1.312-1.176 2.928-1.176 4.848s.392 3.544 1.176 4.872c.8 1.328 1.808 2.336 3.024 3.024 1.216.672 2.44 1.008 3.672 1.008Zm11.413-9.024c0 1.552.288 3.024.864 4.416a7.81 7.81 0 0 0 2.64 3.36c1.184.864 2.68 1.296 4.488 1.296 1.456 0 2.648-.248 3.576-.744.944-.496 1.68-1.072 2.208-1.728.544-.672.92-1.256 1.128-1.752l1.416.96c-.64 1.04-1.352 1.92-2.136 2.64a7.816 7.816 0 0 1-2.712 1.584c-1.008.352-2.192.528-3.552.528-2.064 0-3.808-.48-5.232-1.44-1.424-.976-2.504-2.272-3.24-3.888-.72-1.632-1.08-3.416-1.08-5.352 0-1.92.368-3.648 1.104-5.184.752-1.536 1.832-2.752 3.24-3.648 1.424-.896 3.136-1.344 5.136-1.344 1.776 0 3.32.416 4.632 1.248 1.328.816 2.36 1.936 3.096 3.36.736 1.424 1.104 3.048 1.104 4.872 0 .144-.008.288-.024.432a3.093 3.093 0 0 0-.024.384h-16.632Zm14.976-1.536c-.032-1.04-.272-2.12-.72-3.24-.432-1.12-1.16-2.064-2.184-2.832-1.024-.784-2.432-1.176-4.224-1.176-1.888 0-3.384.376-4.488 1.128-1.088.752-1.88 1.688-2.376 2.808-.48 1.12-.768 2.224-.864 3.312h14.856Zm8.95 11.52h-1.488v-19.704h1.488v3.696h-.12c.048-.432.328-.984.84-1.656.528-.672 1.24-1.272 2.136-1.8.912-.544 1.96-.816 3.144-.816.928 0 1.712.112 2.352.336.64.224 1.072.448 1.296.672l-.744 1.368c-.224-.176-.616-.36-1.176-.552-.56-.192-1.24-.288-2.04-.288-1.12 0-2.112.4-2.976 1.2a8.584 8.584 0 0 0-1.992 2.856c-.48 1.104-.72 2.112-.72 3.024V489Zm16.563-7.488-.432-25.536h2.016l-.48 25.536h-1.104Zm.528 8.064c-.416 0-.8-.104-1.152-.312a2.275 2.275 0 0 1-.816-.792 2.367 2.367 0 0 1-.288-1.152c0-.656.216-1.2.648-1.632a2.194 2.194 0 0 1 1.608-.672c.64 0 1.176.224 1.608.672.448.432.672.976.672 1.632 0 .624-.224 1.16-.672 1.608-.432.432-.968.648-1.608.648Z"/>
  <rect width="45" height="130" x="163" y="309" fill="#fff" rx="21"/>
  <rect width="44" height="130" x="250" y="352" fill="#fff" rx="21" transform="rotate(90 250 352)"/>
  <path fill="#2260FF" d="M160.43 350.927c11.579 1.651 19.09 10.095 24.376 19.176 2.926 5.112 5.393 10.558 9.227 14.916 2.846 3.253 6.179 5.984 9.838 8.404 2.443 1.601 5.031 3.025 8.273 3.486-1.772.258-3.499.169-5.111-.132-4.802-.989-8.914-3.143-12.668-5.741-3.735-2.61-6.782-6.14-9.149-10.078-2.314-3.82-4.262-7.969-6.531-11.752-4.533-7.586-10.036-14.299-18.255-18.279Z"/>
  <path fill="#2260FF" d="M187.921 369.566s-13.735-12.086-7.34-28.307c5.271-13.371 12.78-15.941 12.404-26.57 5.44 4.806 15.316 17.309 10.754 32.109-4.464 14.479-15.818 22.768-15.818 22.768Z"/>
  <path fill="#fff" d="M192.985 314.689c6.593 8.043 6.69 17.855 3.444 27.604-2.888 9.162-8 17.209-9.185 26.79-.142-.831-.419-1.925-.438-2.782-.069-1.488.045-3.03.256-4.512 1.034-7.054 4.164-13.798 6.294-20.436 3.215-9.592 3.572-17.456-.371-26.664Z"/>
  <path fill="#2260FF" d="M183.674 380.434s-13.91-21.708-29.686-14.792c-13.004 5.7-15.095 10.525-28.751 7.175 4.945 5.172 15.997 16.75 32.733 14.995 14.907-1.564 25.704-7.378 25.704-7.378Z"/>
  <path fill="#fff" d="M125.024 373.016c7.065 3.945 15.417 4.715 23.126 2.866 1.355-.256 3.009-.83 4.334-1.21 10.277-3.621 23.292-2.222 31.18 5.775-8.929-4.262-19.541-4.838-28.867-1.841a80.13 80.13 0 0 1-1.829.539c-.358.1-2.104.596-2.425.677-1.136.202-2.348.455-3.49.604-.691.035-2.364.217-3.039.218-.504-.011-1.532-.03-2.037-.043-6.249-.303-12.843-2.734-16.953-7.585Z"/>
</svg>
