<svg xmlns="http://www.w3.org/2000/svg" width="52" height="52" fill="none">
  <path fill="#2260FF" d="M32.566 51.5a.5.5 0 1 0 0-1v1ZM18.213 40.161h-.5a.52.52 0 0 0 .003.056l.497-.056ZM32.548 50.5a.5.5 0 0 0 0 1v-1Zm14.354-10.339h.5-.5Zm.5-9.3a.5.5 0 1 0-1 0h1Zm-28.689 2.066a.5.5 0 1 0-1 0h1ZM34.607 7.836h.5c0-.013 0-.025-.002-.037l-.498.037ZM17.803 32.944v-.5.5ZM29.205 3.278a.5.5 0 0 0 0 1v-1ZM1 7.836l-.499-.037a.5.5 0 0 0-.001.037H1Zm5.401-3.558a.5.5 0 1 0 0-1v1ZM32.567 51v-.5h-.01v1h.01V51Zm-.01 0v-.5c-7.425-.004-13.272-5.28-13.847-10.395l-.497.056-.497.056c.644 5.72 7.014 11.279 14.841 11.283V51Zm-.009 0v.5h.01v-1h-.01v.5Zm.01 0v.5c3.916-.002 7.608-1.26 10.33-3.295 2.722-2.033 4.514-4.877 4.514-8.044h-1c0 2.767-1.567 5.341-4.112 7.243-2.542 1.9-6.022 3.094-9.733 3.096v.5Zm14.344-10.839h.5v-9.3h-1v9.3h.5Zm-28.689 0h.5v-7.234h-1v7.234h.5ZM34.607 7.836h-.5V18.74h1V7.836h-.5Zm0 10.905h-.5c0 7.493-7.218 13.703-16.304 13.703v1c9.474 0 17.304-6.507 17.304-14.703h-.5Zm0-10.905.498-.037c-.058-.783-.431-1.912-1.349-2.85-.931-.95-2.39-1.671-4.55-1.671v1c1.92 0 3.111.632 3.835 1.371.738.754 1.025 1.654 1.067 2.224l.499-.037ZM1 7.836H.5V18.74h1V7.836H1ZM1 18.74H.5c0 8.196 7.829 14.703 17.303 14.703v-1c-9.086 0-16.303-6.21-16.303-13.703H1ZM1 7.836l.499.037c.042-.57.329-1.47 1.066-2.224.724-.74 1.916-1.371 3.836-1.371v-1c-2.16 0-3.62.72-4.55 1.672C.932 5.887.558 7.016.5 7.799L1 7.836ZM12.475 3.43h-.5c0 .991-.98 1.93-2.368 1.93v1c1.78 0 3.368-1.237 3.368-2.93h-.5ZM9.607 5.86v-.5c-1.39 0-2.37-.939-2.37-1.93h-1c0 1.693 1.59 2.93 3.37 2.93v-.5Zm-2.87-2.43h.5c0-.992.98-1.931 2.37-1.931v-1c-1.78 0-3.37 1.238-3.37 2.93h.5ZM9.608 1v.5c1.389 0 2.368.939 2.368 1.93h1c0-1.692-1.589-2.93-3.368-2.93V1Zm19.262 2.43h-.5c0 .992-.98 1.931-2.369 1.931v1c1.78 0 3.369-1.237 3.369-2.93h-.5ZM26 5.862v-.5c-1.39 0-2.369-.939-2.369-1.93h-1c0 1.693 1.59 2.93 3.369 2.93v-.5Zm-2.869-2.43h.5c0-.992.98-1.931 2.369-1.931v-1c-1.78 0-3.369 1.238-3.369 2.93h.5ZM26 1v.5c1.39 0 2.369.939 2.369 1.93h1C29.369 1.739 27.779.5 26 .5V1Zm25 26.042h-.5c0 1.758-1.714 3.32-4.008 3.32v1c2.685 0 5.008-1.86 5.008-4.32H51Zm-4.508 3.82v-.5c-2.295 0-4.008-1.562-4.008-3.32h-1c0 2.46 2.323 4.32 5.008 4.32v-.5Zm-4.508-3.82h.5c0-1.76 1.713-3.32 4.008-3.32v-1c-2.685 0-5.008 1.86-5.008 4.32h.5Zm4.508-3.82v.5c2.294 0 4.008 1.56 4.008 3.32h1c0-2.46-2.323-4.32-5.008-4.32v.5Z"/>
</svg>
