<svg xmlns="http://www.w3.org/2000/svg" width="27" height="27" fill="none">
  <circle cx="13.5" cy="13.5" r="13.5" fill="#CAD6FF"/>
  <path fill="#000" d="M11.753 5v-.5a.5.5 0 0 0-.5.5h.5Zm3.494 0h.5a.5.5 0 0 0-.5-.5V5Zm0 17v.5a.5.5 0 0 0 .5-.5h-.5Zm-3.494 0h-.5a.5.5 0 0 0 .5.5V22ZM22 11.753h.5a.5.5 0 0 0-.5-.5v.5Zm0 3.494v.5a.5.5 0 0 0 .5-.5H22Zm-17 0h-.5a.5.5 0 0 0 .5.5v-.5Zm0-3.494v-.5a.5.5 0 0 0-.5.5H5Zm13.275-5.498.354-.354a.5.5 0 0 0-.705-.002l.351.356Zm2.47 2.47.356.351a.5.5 0 0 0-.002-.705l-.354.354Zm-12.02 12.02-.354.354a.5.5 0 0 0 .705.002l-.351-.356Zm-2.47-2.47-.356-.351a.5.5 0 0 0 .002.705l.354-.354Zm14.49 0 .354.354a.5.5 0 0 0 .006-.7l-.36.346Zm-2.47 2.47-.356.351a.5.5 0 0 0 .71.003l-.354-.354ZM6.255 8.725 5.9 8.37a.5.5 0 0 0 0 .707l.354-.353Zm2.47-2.47.353-.354a.5.5 0 0 0-.707 0l.354.354Zm10.409 8.992v-.5h-.36l-.114.34.474.16Zm-.409.931-.438-.24-.177.322.255.265.36-.347Zm-2.547 2.435.357-.35-.253-.258-.324.16.22.448Zm-.931.361-.14-.48-.36.105v.375h.5Zm-3.494-.073h.5v-.359l-.34-.115-.16.474Zm-.815-.347.23-.444-.323-.167-.258.256.351.355Zm-2.492-2.492.355.351.256-.258-.168-.324-.443.23Zm-.347-.815.474-.16-.115-.34h-.359v.5Zm-.073-3.494v.5H8.4l.105-.36-.48-.14Zm.35-.908.45.219.155-.32-.252-.252-.354.353Zm2.396-2.543-.353.354.268.268.33-.186-.245-.436Zm.981-.436.16.474.34-.115v-.359h-.5Zm3.494-.073h-.5v.375l.36.105.14-.48Zm1.047.42-.23.444.323.167.259-.256-.352-.355Zm2.493 2.493-.355-.352-.256.259.167.323.444-.23Zm.42 1.047-.48.14.105.36h.375v-.5ZM11.753 5v.5h3.494v-1h-3.494V5Zm3.494 17v-.5h-3.494v1h3.494V22ZM22 11.753h-.5v3.494h1v-3.494H22ZM5 15.247h.5v-3.494h-1v3.494H5Zm13.275-8.992-.353.353 2.47 2.47.353-.353.354-.354-2.47-2.47-.354.354Zm-9.55 14.49.353-.353-2.47-2.47-.353.353-.354.354 2.47 2.47.354-.354Zm12.02-2.47-.353-.353-2.47 2.47.353.353.354.354 2.47-2.47-.354-.354Zm-14.49-9.55.353.353 2.47-2.47-.353-.353L8.37 5.9l-2.47 2.47.354.354Zm12.879 6.522-.474-.16c-.1.296-.225.58-.373.85l.438.241.438.24a6.29 6.29 0 0 0 .445-1.011l-.474-.16Zm-2.956 3.366-.22-.449a5.28 5.28 0 0 1-.851.33l.14.48.14.48c.35-.102.689-.234 1.011-.392l-.22-.449Zm-4.425.288.16-.474a5.294 5.294 0 0 1-.744-.317l-.23.444-.231.444a6.3 6.3 0 0 0 .886.377l.16-.474Zm-3.307-2.84.443-.23a5.29 5.29 0 0 1-.316-.744l-.474.16-.474.16c.104.306.23.602.377.885l.444-.23Zm-.42-4.308.48.14c.083-.287.19-.564.32-.83l-.45-.218-.45-.218c-.153.315-.28.645-.38.987l.48.14Zm2.746-3.45.245.435a5.29 5.29 0 0 1 .896-.398l-.16-.474-.16-.474a6.29 6.29 0 0 0-1.065.474l.244.436Zm4.475-.51-.14.48c.334.097.654.226.957.384l.23-.444.23-.444a6.283 6.283 0 0 0-1.138-.456l-.14.48Zm3.54 2.913-.444.23c.158.303.287.623.384.957l.48-.14.48-.14a6.284 6.284 0 0 0-.456-1.138l-.444.23Zm-7.034-2.84h.5V5h-1v2.866h.5ZM15.247 5h-.5v2.793h1V5h-.5ZM8.725 6.255l-.354.353 2.048 2.048.353-.354.354-.353L9.078 5.9l-.353.354Zm-.35 4.59.354-.353-2.12-2.121-.354.354-.354.353 2.12 2.121.354-.354Zm7.92-2.632.351.355 1.98-1.958-.35-.355-.352-.356-1.981 1.958.351.356Zm4.45.512-.355-.352-1.958 1.981.355.352.356.351 1.958-1.98-.356-.352Zm-1.538 3.028v.5H22v-1h-2.793v.5ZM22 15.247v-.5h-2.866v1H22v-.5Zm-3.275.931-.36.347 2.02 2.097.36-.347.36-.346-2.02-2.098-.36.347Zm-.45 4.567.357-.35-2.097-2.133-.357.351-.356.35 2.097 2.133.356-.35Zm-3.028-1.77h-.5V22h1v-3.026h-.5ZM11.753 22h.5v-3.099h-1V22h.5Zm-.815-3.446-.351-.355-2.214 2.191.352.355.351.356 2.214-2.191-.352-.356Zm-4.683-.279.355.352L8.8 16.413l-.355-.351-.356-.352-2.19 2.214.355.351Zm1.844-3.028v-.5H5v1h3.099v-.5ZM5 11.753v.5h3.026v-1H5v.5Zm10.913 1.233-.49.098a1.9 1.9 0 0 1-1.541 2.269l.085.493.085.492a2.9 2.9 0 0 0 2.35-3.45l-.49.098Zm-1.946 2.86-.085-.493c-1.074.185-2.13-.54-2.347-1.625l-.49.098-.49.099c.322 1.61 1.882 2.692 3.497 2.413l-.085-.492Zm-2.922-2.02.49-.098a1.9 1.9 0 0 1 1.54-2.268l-.084-.493-.085-.492a2.9 2.9 0 0 0-2.352 3.45l.49-.099Zm1.946-2.859.085.493c1.074-.185 2.13.54 2.346 1.624l.49-.098.49-.098c-.321-1.61-1.882-2.692-3.497-2.413l.086.492Z"/>
</svg>
