<svg width="153" height="35" viewBox="0 0 153 35" fill="none" xmlns="http://www.w3.org/2000/svg">
<path d="M10.5697 1.744C12.2817 1.744 13.7217 1.952 14.8897 2.368C16.0737 2.768 16.9937 3.192 17.6497 3.64C18.3057 4.088 18.6817 4.376 18.7777 4.504L17.8177 5.848C17.5777 5.624 17.1617 5.312 16.5697 4.912C15.9777 4.496 15.1937 4.12 14.2177 3.784C13.2417 3.448 12.0497 3.28 10.6417 3.28C8.36969 3.28 6.58569 3.768 5.28969 4.744C3.99369 5.72 3.34569 7.064 3.34569 8.776C3.34569 9.928 3.68169 10.936 4.35369 11.8C5.04169 12.648 5.95369 13.416 7.08969 14.104C8.24169 14.776 9.50569 15.44 10.8817 16.096C11.9217 16.592 12.9857 17.136 14.0737 17.728C15.1617 18.32 16.1697 19.016 17.0977 19.816C18.0417 20.6 18.8017 21.52 19.3777 22.576C19.9537 23.632 20.2417 24.864 20.2417 26.272C20.2417 27.44 20.0017 28.528 19.5217 29.536C19.0577 30.544 18.3777 31.432 17.4817 32.2C16.6017 32.952 15.5377 33.536 14.2897 33.952C13.0577 34.368 11.6737 34.576 10.1377 34.576C8.40969 34.576 6.83369 34.344 5.40969 33.88C3.98569 33.416 2.83369 32.944 1.95369 32.464C1.08969 31.968 0.617688 31.688 0.537688 31.624L1.61769 30.208C1.82569 30.368 2.16169 30.608 2.62569 30.928C3.10569 31.232 3.70569 31.552 4.42569 31.888C5.14569 32.208 5.99369 32.48 6.96969 32.704C7.94569 32.928 9.04169 33.04 10.2577 33.04C12.9777 33.04 15.0417 32.392 16.4497 31.096C17.8737 29.784 18.5857 28.144 18.5857 26.176C18.5857 24.64 18.1297 23.336 17.2177 22.264C16.3057 21.176 15.1617 20.232 13.7857 19.432C12.4257 18.632 11.0417 17.896 9.63369 17.224C8.14569 16.488 6.80169 15.736 5.60169 14.968C4.40169 14.184 3.44969 13.296 2.74569 12.304C2.04169 11.296 1.68969 10.104 1.68969 8.728C1.68969 7.4 2.07369 6.208 2.84169 5.152C3.60969 4.096 4.66569 3.264 6.00969 2.656C7.35369 2.048 8.87369 1.744 10.5697 1.744ZM36.8474 14.296H39.1514L28.2554 23.68L39.6074 34H37.3034L26.8634 24.592V34H25.3274V0.975999H26.8634V22.912L36.8474 14.296ZM58.6777 34V29.632C58.5817 30.08 58.2057 30.704 57.5497 31.504C56.9097 32.288 56.0137 33 54.8617 33.64C53.7097 34.264 52.3417 34.576 50.7577 34.576C49.0137 34.576 47.3817 34.176 45.8617 33.376C44.3577 32.576 43.1417 31.4 42.2137 29.848C41.2857 28.296 40.8217 26.4 40.8217 24.16C40.8217 21.92 41.2857 20.024 42.2137 18.472C43.1417 16.92 44.3577 15.744 45.8617 14.944C47.3817 14.128 49.0137 13.72 50.7577 13.72C52.3417 13.72 53.7097 14.032 54.8617 14.656C56.0297 15.264 56.9417 15.96 57.5977 16.744C58.2697 17.528 58.6297 18.176 58.6777 18.688V14.296H60.1657V34H58.6777ZM42.3577 24.16C42.3577 26.016 42.7577 27.608 43.5577 28.936C44.3577 30.264 45.3897 31.28 46.6537 31.984C47.9177 32.688 49.2377 33.04 50.6137 33.04C52.1337 33.04 53.4937 32.68 54.6937 31.96C55.8937 31.24 56.8377 30.216 57.5257 28.888C58.2297 27.56 58.5817 25.984 58.5817 24.16C58.5817 22.336 58.2297 20.76 57.5257 19.432C56.8377 18.104 55.8937 17.08 54.6937 16.36C53.4937 15.624 52.1337 15.256 50.6137 15.256C49.2377 15.256 47.9177 15.616 46.6537 16.336C45.3897 17.04 44.3577 18.056 43.5577 19.384C42.7577 20.712 42.3577 22.304 42.3577 24.16ZM75.4492 13.72C76.6492 13.72 77.8252 13.984 78.9772 14.512C80.1292 15.04 81.0732 15.88 81.8092 17.032C82.5612 18.168 82.9372 19.648 82.9372 21.472V34H81.3532V21.976C81.3532 19.56 80.7932 17.84 79.6732 16.816C78.5532 15.776 77.1292 15.256 75.4012 15.256C74.2492 15.256 73.1372 15.592 72.0652 16.264C70.9932 16.936 70.1052 17.848 69.4012 19C68.7132 20.152 68.3692 21.44 68.3692 22.864V34H66.8332V14.296H68.3692V18.328C68.4652 17.752 68.8412 17.104 69.4972 16.384C70.1532 15.664 71.0012 15.04 72.0412 14.512C73.0812 13.984 74.2172 13.72 75.4492 13.72ZM97.5562 33.04C99.0922 33.04 100.316 32.808 101.228 32.344C102.14 31.864 102.692 31.544 102.884 31.384L103.82 32.728C103.724 32.808 103.388 33 102.812 33.304C102.236 33.608 101.476 33.896 100.532 34.168C99.6042 34.44 98.5482 34.576 97.3642 34.576C95.9562 34.576 94.5402 34.2 93.1162 33.448C91.7082 32.68 90.5242 31.52 89.5642 29.968C88.6202 28.416 88.1482 26.472 88.1482 24.136C88.1482 21.784 88.6202 19.84 89.5642 18.304C90.5242 16.768 91.7082 15.624 93.1162 14.872C94.5402 14.104 95.9562 13.72 97.3642 13.72C98.5482 13.72 99.5802 13.872 100.46 14.176C101.356 14.48 102.076 14.808 102.62 15.16C103.18 15.512 103.524 15.76 103.652 15.904L102.74 17.248C102.596 17.104 102.308 16.872 101.876 16.552C101.46 16.232 100.892 15.936 100.172 15.664C99.4522 15.392 98.5802 15.256 97.5562 15.256C96.3242 15.256 95.1002 15.6 93.8842 16.288C92.6682 16.96 91.6602 17.96 90.8602 19.288C90.0762 20.6 89.6842 22.216 89.6842 24.136C89.6842 26.056 90.0762 27.68 90.8602 29.008C91.6602 30.336 92.6682 31.344 93.8842 32.032C95.1002 32.704 96.3242 33.04 97.5562 33.04ZM108.969 24.016C108.969 25.568 109.257 27.04 109.833 28.432C110.409 29.808 111.289 30.928 112.473 31.792C113.657 32.656 115.153 33.088 116.961 33.088C118.417 33.088 119.609 32.84 120.537 32.344C121.481 31.848 122.217 31.272 122.745 30.616C123.289 29.944 123.665 29.36 123.873 28.864L125.289 29.824C124.649 30.864 123.937 31.744 123.153 32.464C122.369 33.168 121.465 33.696 120.441 34.048C119.433 34.4 118.249 34.576 116.889 34.576C114.825 34.576 113.081 34.096 111.657 33.136C110.233 32.16 109.153 30.864 108.417 29.248C107.697 27.616 107.337 25.832 107.337 23.896C107.337 21.976 107.705 20.248 108.441 18.712C109.193 17.176 110.273 15.96 111.681 15.064C113.105 14.168 114.817 13.72 116.817 13.72C118.593 13.72 120.137 14.136 121.449 14.968C122.777 15.784 123.809 16.904 124.545 18.328C125.281 19.752 125.649 21.376 125.649 23.2C125.649 23.344 125.641 23.488 125.625 23.632C125.609 23.76 125.601 23.888 125.601 24.016H108.969ZM123.945 22.48C123.913 21.44 123.673 20.36 123.225 19.24C122.793 18.12 122.065 17.176 121.041 16.408C120.017 15.624 118.609 15.232 116.817 15.232C114.929 15.232 113.433 15.608 112.329 16.36C111.241 17.112 110.449 18.048 109.953 19.168C109.473 20.288 109.185 21.392 109.089 22.48H123.945ZM132.895 34H131.407V14.296H132.895V17.992H132.775C132.823 17.56 133.103 17.008 133.615 16.336C134.143 15.664 134.855 15.064 135.751 14.536C136.663 13.992 137.711 13.72 138.895 13.72C139.823 13.72 140.607 13.832 141.247 14.056C141.887 14.28 142.319 14.504 142.543 14.728L141.799 16.096C141.575 15.92 141.183 15.736 140.623 15.544C140.063 15.352 139.383 15.256 138.583 15.256C137.463 15.256 136.471 15.656 135.607 16.456C134.759 17.256 134.095 18.208 133.615 19.312C133.135 20.416 132.895 21.424 132.895 22.336V34ZM149.458 26.512L149.026 0.975999H151.042L150.562 26.512H149.458ZM149.986 34.576C149.57 34.576 149.186 34.472 148.834 34.264C148.498 34.072 148.226 33.808 148.018 33.472C147.826 33.12 147.73 32.736 147.73 32.32C147.73 31.664 147.946 31.12 148.378 30.688C148.826 30.24 149.362 30.016 149.986 30.016C150.626 30.016 151.162 30.24 151.594 30.688C152.042 31.12 152.266 31.664 152.266 32.32C152.266 32.944 152.042 33.48 151.594 33.928C151.162 34.36 150.626 34.576 149.986 34.576Z" fill="white"/>
</svg> 