<svg width="130" height="130" viewBox="0 0 130 130" fill="none" xmlns="http://www.w3.org/2000/svg">
<rect x="43" width="45" height="130" rx="21" fill="white"/>
<rect x="130" y="43" width="44" height="130" rx="21" transform="rotate(90 130 43)" fill="white"/>
<path d="M40.4301 41.9274C52.0091 43.5775 59.5198 52.0216 64.8063 61.1028C67.7321 66.2147 70.1995 71.6609 74.0333 76.0193C76.8787 79.272 80.2118 82.0026 83.8715 84.4226C86.3145 86.0242 88.9018 87.448 92.1443 87.9088C90.3719 88.1667 88.6454 88.0779 87.0325 87.7772C82.2314 86.7879 78.1189 84.6343 74.365 82.0365C70.6302 79.4264 67.5827 75.8963 65.2156 71.9582C62.902 68.1378 60.954 63.9889 58.6854 60.206C54.1515 52.6196 48.6488 45.907 40.4301 41.9274Z" fill="#2260FF"/>
<path d="M67.921 60.5664C67.921 60.5664 54.1863 48.48 60.5811 32.2587C65.8524 18.8876 73.3613 16.3184 72.9853 5.68933C78.4255 10.4947 88.3009 22.9979 83.7386 37.7975C79.2753 52.2769 67.921 60.5664 67.921 60.5664Z" fill="#2260FF"/>
<path d="M72.9853 5.68933C79.5777 13.7322 79.6746 23.5439 76.4294 33.293C73.5407 42.4548 68.4293 50.5021 67.2436 60.0825C67.102 59.2516 66.8245 58.158 66.8055 57.3013C66.737 55.8126 66.8512 54.2711 67.0622 52.7885C68.0963 45.7353 71.2258 38.9911 73.356 32.3525C76.5713 22.761 76.9278 14.8967 72.9853 5.68933Z" fill="white"/>
<path d="M63.6742 71.4337C63.6742 71.4337 49.7638 49.7264 33.9882 56.6419C20.9843 62.3422 18.8932 67.1666 5.23694 63.8168C10.1818 68.9893 21.2337 80.5666 37.9697 78.8115C52.8767 77.2477 63.6742 71.4337 63.6742 71.4337Z" fill="#2260FF"/>
<path d="M5.02404 64.0163C12.0895 67.9608 20.4406 68.7307 28.1503 66.8817C29.5048 66.6256 31.1588 66.0522 32.4841 65.6722C42.7611 62.0506 55.7759 63.4495 63.6638 71.4474C54.7347 67.1846 44.1229 66.6087 34.7971 69.6061C34.3467 69.7473 33.4243 70.0175 32.9677 70.1449C32.6099 70.2454 30.8645 70.741 30.5432 70.8216C29.4066 71.024 28.1952 71.2772 27.0528 71.4261C26.3621 71.4611 24.6893 71.6428 24.0137 71.6444C23.5101 71.633 22.4824 71.6136 21.9775 71.601C15.728 71.2983 9.13391 68.8667 5.02404 64.0163Z" fill="white"/>
</svg> 