<svg width="80" height="12" viewBox="0 0 80 12" fill="none" xmlns="http://www.w3.org/2000/svg">
<path d="M5.06922 7.662C5.48522 7.662 5.85522 7.604 6.17922 7.488C6.50322 7.368 6.74122 7.25 6.89322 7.134L7.53522 8.412C7.35122 8.572 7.03322 8.734 6.58122 8.898C6.13322 9.062 5.59722 9.144 4.97322 9.144C4.38922 9.144 3.84322 9.042 3.33522 8.838C2.82722 8.63 2.38122 8.342 1.99722 7.974C1.61322 7.602 1.31322 7.168 1.09722 6.672C0.881219 6.172 0.773219 5.632 0.773219 5.052C0.773219 4.472 0.879219 3.932 1.09122 3.432C1.30722 2.928 1.60722 2.49 1.99122 2.118C2.37522 1.746 2.82122 1.456 3.32922 1.248C3.84122 1.04 4.38922 0.935999 4.97322 0.935999C5.59722 0.935999 6.13322 1.018 6.58122 1.182C7.03322 1.346 7.35122 1.508 7.53522 1.668L6.89322 2.946C6.74122 2.83 6.50322 2.714 6.17922 2.598C5.85522 2.478 5.48522 2.418 5.06922 2.418C4.64522 2.418 4.26722 2.486 3.93522 2.622C3.60722 2.758 3.32722 2.948 3.09522 3.192C2.86722 3.432 2.69322 3.71 2.57322 4.026C2.45322 4.342 2.39322 4.678 2.39322 5.034C2.39322 5.394 2.45322 5.734 2.57322 6.054C2.69322 6.37 2.86722 6.65 3.09522 6.894C3.32722 7.134 3.60722 7.322 3.93522 7.458C4.26722 7.594 4.64522 7.662 5.06922 7.662ZM12.553 9V8.142C12.517 8.23 12.425 8.354 12.277 8.514C12.129 8.674 11.929 8.82 11.677 8.952C11.429 9.08 11.137 9.144 10.801 9.144C10.329 9.144 9.911 9.032 9.547 8.808C9.183 8.58 8.897 8.27 8.689 7.878C8.485 7.482 8.383 7.036 8.383 6.54C8.383 6.044 8.485 5.6 8.689 5.208C8.897 4.812 9.183 4.5 9.547 4.272C9.911 4.044 10.329 3.93 10.801 3.93C11.129 3.93 11.413 3.986 11.653 4.098C11.897 4.206 12.093 4.334 12.241 4.482C12.393 4.626 12.491 4.756 12.535 4.872V4.074H14.047V9H12.553ZM9.877 6.54C9.877 6.816 9.939 7.06 10.063 7.272C10.187 7.48 10.351 7.642 10.555 7.758C10.759 7.874 10.981 7.932 11.221 7.932C11.473 7.932 11.697 7.874 11.893 7.758C12.089 7.638 12.243 7.474 12.355 7.266C12.471 7.054 12.529 6.812 12.529 6.54C12.529 6.268 12.471 6.028 12.355 5.82C12.243 5.608 12.089 5.442 11.893 5.322C11.697 5.202 11.473 5.142 11.221 5.142C10.981 5.142 10.759 5.202 10.555 5.322C10.351 5.438 10.187 5.602 10.063 5.814C9.939 6.022 9.877 6.264 9.877 6.54ZM16.8101 11.496H15.2981V4.074H16.8281V4.872C16.8761 4.756 16.9801 4.624 17.1401 4.476C17.3001 4.328 17.5081 4.2 17.7641 4.092C18.0241 3.984 18.3201 3.93 18.6521 3.93C19.1201 3.93 19.5281 4.044 19.8761 4.272C20.2241 4.5 20.4921 4.812 20.6801 5.208C20.8721 5.6 20.9681 6.044 20.9681 6.54C20.9681 7.036 20.8681 7.482 20.6681 7.878C20.4681 8.27 20.1901 8.58 19.8341 8.808C19.4781 9.032 19.0641 9.144 18.5921 9.144C18.2361 9.144 17.9301 9.08 17.6741 8.952C17.4181 8.824 17.2181 8.68 17.0741 8.52C16.9301 8.36 16.8421 8.234 16.8101 8.142V11.496ZM19.4741 6.54C19.4741 6.264 19.4141 6.022 19.2941 5.814C19.1781 5.602 19.0221 5.438 18.8261 5.322C18.6301 5.202 18.4121 5.142 18.1721 5.142C17.9201 5.142 17.6921 5.202 17.4881 5.322C17.2841 5.442 17.1221 5.608 17.0021 5.82C16.8861 6.028 16.8281 6.268 16.8281 6.54C16.8281 6.812 16.8861 7.054 17.0021 7.266C17.1221 7.474 17.2841 7.638 17.4881 7.758C17.6921 7.874 17.9201 7.932 18.1721 7.932C18.4121 7.932 18.6301 7.874 18.8261 7.758C19.0221 7.642 19.1781 7.48 19.2941 7.272C19.4141 7.06 19.4741 6.816 19.4741 6.54ZM24.4923 7.932C24.7523 7.932 24.9643 7.888 25.1283 7.8C25.2923 7.712 25.4003 7.646 25.4523 7.602L26.1603 8.652C26.1043 8.696 26.0003 8.758 25.8483 8.838C25.6963 8.918 25.5023 8.988 25.2663 9.048C25.0343 9.112 24.7683 9.144 24.4683 9.144C23.9483 9.144 23.4823 9.04 23.0703 8.832C22.6583 8.62 22.3323 8.32 22.0923 7.932C21.8563 7.54 21.7383 7.074 21.7383 6.534C21.7383 5.99 21.8563 5.524 22.0923 5.136C22.3323 4.748 22.6583 4.45 23.0703 4.242C23.4823 4.034 23.9483 3.93 24.4683 3.93C24.7643 3.93 25.0263 3.962 25.2543 4.026C25.4863 4.09 25.6803 4.164 25.8363 4.248C25.9923 4.328 26.1003 4.394 26.1603 4.446L25.4343 5.502C25.4063 5.47 25.3523 5.426 25.2723 5.37C25.1923 5.314 25.0863 5.262 24.9543 5.214C24.8263 5.166 24.6723 5.142 24.4923 5.142C24.2723 5.142 24.0623 5.2 23.8623 5.316C23.6663 5.432 23.5063 5.594 23.3823 5.802C23.2583 6.01 23.1963 6.254 23.1963 6.534C23.1963 6.814 23.2583 7.06 23.3823 7.272C23.5063 7.48 23.6663 7.642 23.8623 7.758C24.0623 7.874 24.2723 7.932 24.4923 7.932ZM30.2028 3.93C30.5388 3.93 30.8668 4 31.1868 4.14C31.5068 4.276 31.7688 4.494 31.9728 4.794C32.1808 5.094 32.2848 5.486 32.2848 5.97V9H30.7548V6.234C30.7548 5.83 30.6628 5.53 30.4788 5.334C30.2988 5.138 30.0568 5.04 29.7528 5.04C29.5488 5.04 29.3528 5.096 29.1648 5.208C28.9808 5.316 28.8288 5.468 28.7088 5.664C28.5928 5.856 28.5348 6.076 28.5348 6.324V9H27.0048V0.744H28.5348V4.86C28.5748 4.724 28.6728 4.584 28.8288 4.44C28.9848 4.296 29.1828 4.176 29.4228 4.08C29.6628 3.98 29.9228 3.93 30.2028 3.93ZM34.6196 6.876C34.6316 7.1 34.6916 7.3 34.7996 7.476C34.9076 7.652 35.0636 7.79 35.2676 7.89C35.4756 7.99 35.7236 8.04 36.0116 8.04C36.2716 8.04 36.4996 8.008 36.6956 7.944C36.8956 7.88 37.0636 7.802 37.1996 7.71C37.3396 7.614 37.4436 7.522 37.5116 7.434L38.1416 8.37C38.0296 8.51 37.8796 8.64 37.6916 8.76C37.5076 8.876 37.2716 8.968 36.9836 9.036C36.6996 9.108 36.3436 9.144 35.9156 9.144C35.3756 9.144 34.9016 9.038 34.4936 8.826C34.0856 8.614 33.7676 8.308 33.5396 7.908C33.3116 7.508 33.1976 7.032 33.1976 6.48C33.1976 6 33.2996 5.568 33.5036 5.184C33.7076 4.796 34.0036 4.49 34.3916 4.266C34.7836 4.042 35.2536 3.93 35.8016 3.93C36.3176 3.93 36.7636 4.03 37.1396 4.23C37.5196 4.426 37.8136 4.714 38.0216 5.094C38.2296 5.474 38.3336 5.938 38.3336 6.486C38.3336 6.518 38.3316 6.584 38.3276 6.684C38.3276 6.78 38.3236 6.844 38.3156 6.876H34.6196ZM36.9056 5.934C36.9016 5.806 36.8616 5.668 36.7856 5.52C36.7136 5.372 36.5996 5.246 36.4436 5.142C36.2876 5.038 36.0796 4.986 35.8196 4.986C35.5596 4.986 35.3456 5.036 35.1776 5.136C35.0136 5.236 34.8896 5.36 34.8056 5.508C34.7216 5.652 34.6736 5.794 34.6616 5.934H36.9056ZM40.7787 9H39.2547V4.074H40.7787V4.872H40.7487C40.7767 4.776 40.8527 4.654 40.9767 4.506C41.1047 4.358 41.2807 4.226 41.5047 4.11C41.7287 3.99 41.9987 3.93 42.3147 3.93C42.5427 3.93 42.7487 3.964 42.9327 4.032C43.1207 4.096 43.2547 4.16 43.3347 4.224L42.7347 5.472C42.6827 5.408 42.5847 5.342 42.4407 5.274C42.3007 5.206 42.1247 5.172 41.9127 5.172C41.6607 5.172 41.4507 5.242 41.2827 5.382C41.1147 5.518 40.9887 5.686 40.9047 5.886C40.8207 6.082 40.7787 6.266 40.7787 6.438V9ZM47.021 1.08H49.205C50.049 1.08 50.745 1.25 51.293 1.59C51.845 1.926 52.257 2.392 52.529 2.988C52.801 3.584 52.937 4.266 52.937 5.034C52.937 5.806 52.801 6.49 52.529 7.086C52.257 7.682 51.845 8.15 51.293 8.49C50.745 8.83 50.049 9 49.205 9H47.021V1.08ZM48.509 2.418V7.662H49.073C49.589 7.662 50.013 7.55 50.345 7.326C50.681 7.098 50.931 6.786 51.095 6.39C51.263 5.994 51.347 5.546 51.347 5.046C51.351 4.542 51.271 4.092 51.107 3.696C50.943 3.3 50.691 2.988 50.351 2.76C50.015 2.532 49.589 2.418 49.073 2.418H48.509ZM56.4934 9.144C55.9694 9.144 55.5014 9.032 55.0894 8.808C54.6814 8.584 54.3614 8.278 54.1294 7.89C53.8974 7.498 53.7814 7.052 53.7814 6.552C53.7814 6.052 53.8974 5.606 54.1294 5.214C54.3614 4.818 54.6814 4.506 55.0894 4.278C55.5014 4.046 55.9694 3.93 56.4934 3.93C57.0214 3.93 57.4874 4.046 57.8914 4.278C58.2954 4.506 58.6114 4.818 58.8394 5.214C59.0674 5.606 59.1814 6.052 59.1814 6.552C59.1814 7.052 59.0674 7.498 58.8394 7.89C58.6114 8.278 58.2954 8.584 57.8914 8.808C57.4874 9.032 57.0214 9.144 56.4934 9.144ZM56.4934 7.878C56.7454 7.878 56.9634 7.822 57.1474 7.71C57.3354 7.594 57.4794 7.436 57.5794 7.236C57.6834 7.032 57.7354 6.802 57.7354 6.546C57.7354 6.29 57.6834 6.06 57.5794 5.856C57.4794 5.652 57.3354 5.492 57.1474 5.376C56.9634 5.256 56.7454 5.196 56.4934 5.196C56.2414 5.196 56.0214 5.256 55.8334 5.376C55.6494 5.492 55.5054 5.652 55.4014 5.856C55.2974 6.06 55.2454 6.29 55.2454 6.546C55.2454 6.802 55.2974 7.032 55.4014 7.236C55.5054 7.436 55.6494 7.594 55.8334 7.71C56.0214 7.822 56.2414 7.878 56.4934 7.878ZM62.7423 7.932C63.0023 7.932 63.2143 7.888 63.3783 7.8C63.5423 7.712 63.6503 7.646 63.7023 7.602L64.4103 8.652C64.3543 8.696 64.2503 8.758 64.0983 8.838C63.9463 8.918 63.7523 8.988 63.5163 9.048C63.2843 9.112 63.0183 9.144 62.7183 9.144C62.1983 9.144 61.7323 9.04 61.3203 8.832C60.9083 8.62 60.5823 8.32 60.3423 7.932C60.1063 7.54 59.9883 7.074 59.9883 6.534C59.9883 5.99 60.1063 5.524 60.3423 5.136C60.5823 4.748 60.9083 4.45 61.3203 4.242C61.7323 4.034 62.1983 3.93 62.7183 3.93C63.0143 3.93 63.2763 3.962 63.5043 4.026C63.7363 4.09 63.9303 4.164 64.0863 4.248C64.2423 4.328 64.3503 4.394 64.4103 4.446L63.6843 5.502C63.6563 5.47 63.6023 5.426 63.5223 5.37C63.4423 5.314 63.3363 5.262 63.2043 5.214C63.0763 5.166 62.9223 5.142 62.7423 5.142C62.5223 5.142 62.3123 5.2 62.1123 5.316C61.9163 5.432 61.7563 5.594 61.6323 5.802C61.5083 6.01 61.4463 6.254 61.4463 6.534C61.4463 6.814 61.5083 7.06 61.6323 7.272C61.7563 7.48 61.9163 7.642 62.1123 7.758C62.3123 7.874 62.5223 7.932 62.7423 7.932ZM64.8 4.074H65.688V2.052H67.2V4.074H68.364V5.34H67.2V7.122C67.2 7.358 67.238 7.542 67.314 7.674C67.39 7.802 67.51 7.866 67.674 7.866C67.798 7.866 67.9 7.842 67.98 7.794C68.06 7.742 68.108 7.706 68.124 7.686L68.664 8.778C68.64 8.802 68.562 8.844 68.43 8.904C68.302 8.964 68.136 9.018 67.932 9.066C67.732 9.118 67.506 9.144 67.254 9.144C66.802 9.144 66.428 9.014 66.132 8.754C65.836 8.49 65.688 8.082 65.688 7.53V5.34H64.8V4.074ZM71.845 9.144C71.321 9.144 70.853 9.032 70.441 8.808C70.033 8.584 69.713 8.278 69.481 7.89C69.249 7.498 69.133 7.052 69.133 6.552C69.133 6.052 69.249 5.606 69.481 5.214C69.713 4.818 70.033 4.506 70.441 4.278C70.853 4.046 71.321 3.93 71.845 3.93C72.373 3.93 72.839 4.046 73.243 4.278C73.647 4.506 73.963 4.818 74.191 5.214C74.419 5.606 74.533 6.052 74.533 6.552C74.533 7.052 74.419 7.498 74.191 7.89C73.963 8.278 73.647 8.584 73.243 8.808C72.839 9.032 72.373 9.144 71.845 9.144ZM71.845 7.878C72.097 7.878 72.315 7.822 72.499 7.71C72.687 7.594 72.831 7.436 72.931 7.236C73.035 7.032 73.087 6.802 73.087 6.546C73.087 6.29 73.035 6.06 72.931 5.856C72.831 5.652 72.687 5.492 72.499 5.376C72.315 5.256 72.097 5.196 71.845 5.196C71.593 5.196 71.373 5.256 71.185 5.376C71.001 5.492 70.857 5.652 70.753 5.856C70.649 6.06 70.597 6.29 70.597 6.546C70.597 6.802 70.649 7.032 70.753 7.236C70.857 7.436 71.001 7.594 71.185 7.71C71.373 7.822 71.593 7.878 71.845 7.878ZM76.9779 9H75.4539V4.074H76.9779V4.872H76.9479C76.9759 4.776 77.0519 4.654 77.1759 4.506C77.3039 4.358 77.4799 4.226 77.7039 4.11C77.9279 3.99 78.1979 3.93 78.5139 3.93C78.7419 3.93 78.9479 3.964 79.1319 4.032C79.3199 4.096 79.4539 4.16 79.5339 4.224L78.9339 5.472C78.8819 5.408 78.7839 5.342 78.6399 5.274C78.4999 5.206 78.3239 5.172 78.1119 5.172C77.8599 5.172 77.6499 5.242 77.4819 5.382C77.3139 5.518 77.1879 5.686 77.1039 5.886C77.0199 6.082 76.9779 6.266 76.9779 6.438V9Z" fill="white"/>
</svg> 