<svg width="52" height="46" viewBox="0 0 52 46" fill="none" xmlns="http://www.w3.org/2000/svg">
  <path d="M26 0C11.641 0 0 10.313 0 23C0 35.687 11.641 46 26 46C40.359 46 52 35.687 52 23C52 10.313 40.359 0 26 0ZM26 42C13.85 42 4 33.15 4 23C4 12.85 13.85 4 26 4C38.15 4 48 12.85 48 23C48 33.15 38.15 42 26 42Z" fill="white"/>
  <path d="M26 8C18.268 8 12 14.268 12 22C12 29.732 18.268 36 26 36C33.732 36 40 29.732 40 22C40 14.268 33.732 8 26 8ZM26 32C20.477 32 16 27.523 16 22C16 16.477 20.477 12 26 12C31.523 12 36 16.477 36 22C36 27.523 31.523 32 26 32Z" fill="white"/>
</svg> 